<svg width="25" height="24" viewBox="0 0 25 24" fill="none" xmlns="http://www.w3.org/2000/svg">
<path d="M22.875 4.85018V16.7402C22.875 17.7102 22.085 18.6002 21.115 18.7202L20.805 18.7602C19.165 18.9802 16.855 19.6602 14.995 20.4402C14.345 20.7102 13.625 20.2202 13.625 19.5102V5.60018C13.625 5.23018 13.835 4.89018 14.165 4.71018C15.995 3.72018 18.765 2.84018 20.645 2.68018H20.705C21.905 2.68018 22.875 3.65018 22.875 4.85018Z" fill="white"/>
<path d="M11.5852 4.71018C9.75523 3.72018 6.98523 2.84018 5.10523 2.68018H5.03523C3.83523 2.68018 2.86523 3.65018 2.86523 4.85018V16.7402C2.86523 17.7102 3.65523 18.6002 4.62523 18.7202L4.93523 18.7602C6.57523 18.9802 8.88523 19.6602 10.7452 20.4402C11.3952 20.7102 12.1152 20.2202 12.1152 19.5102V5.60018C12.1152 5.22018 11.9152 4.89018 11.5852 4.71018ZM5.87523 7.74018H8.12523C8.53523 7.74018 8.87523 8.08018 8.87523 8.49018C8.87523 8.91018 8.53523 9.24018 8.12523 9.24018H5.87523C5.46523 9.24018 5.12523 8.91018 5.12523 8.49018C5.12523 8.08018 5.46523 7.74018 5.87523 7.74018ZM8.87523 12.2402H5.87523C5.46523 12.2402 5.12523 11.9102 5.12523 11.4902C5.12523 11.0802 5.46523 10.7402 5.87523 10.7402H8.87523C9.28523 10.7402 9.62523 11.0802 9.62523 11.4902C9.62523 11.9102 9.28523 12.2402 8.87523 12.2402Z" fill="white"/>
</svg>
