<svg width="25" height="24" viewBox="0 0 25 24" fill="none" xmlns="http://www.w3.org/2000/svg">
<path d="M22.875 16.7402V4.67019C22.875 3.47019 21.895 2.58019 20.705 2.68019H20.645C18.545 2.86019 15.355 3.93019 13.575 5.05019L13.405 5.16019C13.115 5.34019 12.635 5.34019 12.345 5.16019L12.095 5.01019C10.315 3.90019 7.135 2.84019 5.035 2.67019C3.845 2.57019 2.875 3.47019 2.875 4.66019V16.7402C2.875 17.7002 3.655 18.6002 4.615 18.7202L4.905 18.7602C7.075 19.0502 10.425 20.1502 12.345 21.2002L12.385 21.2202C12.655 21.3702 13.085 21.3702 13.345 21.2202C15.265 20.1602 18.625 19.0502 20.805 18.7602L21.135 18.7202C22.095 18.6002 22.875 17.7002 22.875 16.7402Z" stroke="white" stroke-width="1.5" stroke-linecap="round" stroke-linejoin="round"/>
<path d="M12.875 5.49023V20.4902" stroke="white" stroke-width="1.5" stroke-linecap="round" stroke-linejoin="round"/>
<path d="M8.625 8.49023H6.375" stroke="white" stroke-width="1.5" stroke-linecap="round" stroke-linejoin="round"/>
<path d="M9.375 11.4902H6.375" stroke="white" stroke-width="1.5" stroke-linecap="round" stroke-linejoin="round"/>
</svg>
