<svg width="25" height="24" viewBox="0 0 25 24" fill="none" xmlns="http://www.w3.org/2000/svg">
<path d="M20.6652 6.82018L14.9052 2.79018C13.3352 1.69018 10.9252 1.75018 9.41523 2.92018L4.40523 6.83018C3.40523 7.61018 2.61523 9.21018 2.61523 10.4702V17.3702C2.61523 19.9202 4.68523 22.0002 7.23523 22.0002H18.0152C20.5652 22.0002 22.6352 19.9302 22.6352 17.3802V10.6002C22.6352 9.25018 21.7652 7.59018 20.6652 6.82018ZM13.3752 18.0002C13.3752 18.4102 13.0352 18.7502 12.6252 18.7502C12.2152 18.7502 11.8752 18.4102 11.8752 18.0002V15.0002C11.8752 14.5902 12.2152 14.2502 12.6252 14.2502C13.0352 14.2502 13.3752 14.5902 13.3752 15.0002V18.0002Z" fill="white"/>
</svg>
