<svg width="25" height="24" viewBox="0 0 25 24" fill="none" xmlns="http://www.w3.org/2000/svg">
<path d="M12.375 2C9.755 2 7.625 4.13 7.625 6.75C7.625 9.32 9.635 11.4 12.255 11.49C12.335 11.48 12.415 11.48 12.475 11.49C12.495 11.49 12.505 11.49 12.525 11.49C12.535 11.49 12.535 11.49 12.545 11.49C15.105 11.4 17.115 9.32 17.125 6.75C17.125 4.13 14.995 2 12.375 2Z" fill="white"/>
<path d="M17.4559 14.15C14.6659 12.29 10.1159 12.29 7.30594 14.15C6.03594 15 5.33594 16.15 5.33594 17.38C5.33594 18.61 6.03594 19.75 7.29594 20.59C8.69594 21.53 10.5359 22 12.3759 22C14.2159 22 16.0559 21.53 17.4559 20.59C18.7159 19.74 19.4159 18.6 19.4159 17.36C19.4059 16.13 18.7159 14.99 17.4559 14.15Z" fill="white"/>
</svg>
