<svg width="25" height="24" viewBox="0 0 25 24" fill="none" xmlns="http://www.w3.org/2000/svg">
<path d="M12.5355 10.87C12.4355 10.86 12.3155 10.86 12.2055 10.87C9.82555 10.79 7.93555 8.84 7.93555 6.44C7.93555 3.99 9.91555 2 12.3755 2C14.8255 2 16.8155 3.99 16.8155 6.44C16.8055 8.84 14.9155 10.79 12.5355 10.87Z" stroke="white" stroke-width="1.5" stroke-linecap="round" stroke-linejoin="round"/>
<path d="M7.5357 14.56C5.1157 16.18 5.1157 18.82 7.5357 20.43C10.2857 22.27 14.7957 22.27 17.5457 20.43C19.9657 18.81 19.9657 16.17 17.5457 14.56C14.8057 12.73 10.2957 12.73 7.5357 14.56Z" stroke="white" stroke-width="1.5" stroke-linecap="round" stroke-linejoin="round"/>
</svg>
